<svg xmlns="http://www.w3.org/2000/svg" viewBox="0 0 800 500">
  <defs><linearGradient id="g" x1="0" y1="0" x2="1" y2="1"><stop stop-color="#6d1515"/><stop offset="1" stop-color="#25302b"/></linearGradient></defs>
  <rect width="800" height="500" fill="url(#g)"/>
  <circle cx="620" cy="100" r="180" fill="#d5a83f" opacity=".18"/>
  <path d="M0 420 220 225l120 100 115-145 345 290v30H0z" fill="#fff" opacity=".09"/>
  <g transform="translate(294 140)" fill="none" stroke="#f5dfad" stroke-width="12" stroke-linecap="round" stroke-linejoin="round"><path d="M6 25h76c24 0 43 19 43 43v137c0-24-19-43-43-43H6V25Z"/><path d="M206 25h-76c-24 0-43 19-43 43v137c0-24 19-43 43-43h76V25Z"/></g>
  <path d="M80 420h640" stroke="#f5dfad" stroke-width="3" opacity=".6"/>
</svg>
