<svg xmlns="http://www.w3.org/2000/svg" viewBox="0 0 800 500">
  <defs><linearGradient id="g" x1="0" y1="0" x2="1" y2="1"><stop stop-color="#551111"/><stop offset="1" stop-color="#213648"/></linearGradient></defs>
  <rect width="800" height="500" fill="url(#g)"/>
  <circle cx="620" cy="100" r="180" fill="#d5a83f" opacity=".18"/>
  <path d="M0 420 220 225l120 100 115-145 345 290v30H0z" fill="#fff" opacity=".09"/>
  <g transform="translate(294 140)" fill="none" stroke="#f5dfad" stroke-width="12" stroke-linecap="round" stroke-linejoin="round"><circle cx="106" cy="106" r="90"/><path d="M16 106h180M106 16c28 26 42 56 42 90s-14 64-42 90c-28-26-42-56-42-90s14-64 42-90Z"/><path d="M34 55h144M34 157h144"/></g>
  <path d="M80 420h640" stroke="#f5dfad" stroke-width="3" opacity=".6"/>
</svg>
