<svg xmlns="http://www.w3.org/2000/svg" viewBox="0 0 800 500">
  <defs><linearGradient id="g" x1="0" y1="0" x2="1" y2="1"><stop stop-color="#641717"/><stop offset="1" stop-color="#22243a"/></linearGradient></defs>
  <rect width="800" height="500" fill="url(#g)"/>
  <circle cx="620" cy="100" r="180" fill="#d5a83f" opacity=".18"/>
  <path d="M0 420 220 225l120 100 115-145 345 290v30H0z" fill="#fff" opacity=".09"/>
  <g transform="translate(294 140)" fill="none" stroke="#f5dfad" stroke-width="12" stroke-linecap="round" stroke-linejoin="round"><rect x="20" y="20" width="172" height="172" rx="18"/><path d="M65 0v20M106 0v20M147 0v20M65 192v22M106 192v22M147 192v22M0 65h20M0 106h20M0 147h20M192 65h22M192 106h22M192 147h22"/><circle cx="106" cy="106" r="42"/></g>
  <path d="M80 420h640" stroke="#f5dfad" stroke-width="3" opacity=".6"/>
</svg>
